<?xml version="1.0" encoding="utf-8"?>
<!-- Generator: Adobe Illustrator 20.1.0, SVG Export Plug-In . SVG Version: 6.00 Build 0)  -->
<!DOCTYPE svg PUBLIC "-//W3C//DTD SVG 1.1//EN" "http://www.w3.org/Graphics/SVG/1.1/DTD/svg11.dtd">
<svg version="1.1" id="Layer_1" xmlns="http://www.w3.org/2000/svg" xmlns:xlink="http://www.w3.org/1999/xlink" x="0px" y="0px"
	 viewBox="0 0 50 50.3" style="enable-background:new 0 0 50 50.3;" xml:space="preserve">
<style type="text/css">
	.st0{fill:#EB6C4D;}
</style>
<path class="st0" d="M27.7,35.9C27,36.6,26.1,37,25,37s-2-0.4-2.8-1.1c-0.8-0.8-1.1-1.7-1.1-2.8v-29c0-1.1,0.4-2,1.2-2.8
	C23,0.6,23.9,0.2,25,0.2s2,0.4,2.7,1.1c0.8,0.8,1.1,1.7,1.1,2.8V33C28.8,34.2,28.5,35.1,27.7,35.9z M28.8,46.4c0,1.1-0.4,2-1.1,2.8
	s-1.7,1.1-2.8,1.1s-2-0.4-2.8-1.1c-0.8-0.8-1.1-1.7-1.1-2.8V45c0-1.1,0.4-2,1.2-2.8C23,41.4,23.9,41,25,41s2,0.4,2.7,1.1
	c0.8,0.8,1.1,1.7,1.1,2.8C28.8,44.9,28.8,46.4,28.8,46.4z"/>
</svg>
